<svg height="44" viewBox="0 0 144 44" width="144" xmlns="http://www.w3.org/2000/svg" xmlns:xlink="http://www.w3.org/1999/xlink"><linearGradient id="a" x1="61.231376%" x2="26.323984%" y1="4.8388%" y2="71.9684%"><stop offset="0" stop-color="#00a0ff"/><stop offset=".00657445" stop-color="#00a1ff"/><stop offset=".2601" stop-color="#00beff"/><stop offset=".5122" stop-color="#00d2ff"/><stop offset=".7604" stop-color="#00dfff"/><stop offset="1" stop-color="#00e3ff"/></linearGradient><linearGradient id="b" x1="107.728079%" x2="-130.665025%" y1="49.428235%" y2="49.428235%"><stop offset="0" stop-color="#ffe000"/><stop offset=".4087" stop-color="#ffbd00"/><stop offset=".7754" stop-color="#ffa500"/><stop offset="1" stop-color="#ff9c00"/></linearGradient><linearGradient id="c" x1="86.389222%" x2="-49.888024%" y1="30.829755%" y2="136.004321%"><stop offset="0" stop-color="#ff3a44"/><stop offset="1" stop-color="#c31162"/></linearGradient><linearGradient id="d" x1="-18.579042%" x2="42.27485%" y1="-11.68238%" y2="35.064338%"><stop offset="0" stop-color="#32a071"/><stop offset=".0685" stop-color="#2da771"/><stop offset=".4762" stop-color="#15cf74"/><stop offset=".8009" stop-color="#06e775"/><stop offset="1" stop-color="#00f076"/></linearGradient><g fill="none" fill-rule="evenodd"><rect fill="#000" height="44.274809" rx="4.427481" width="143.89313"/><g fill-rule="nonzero" transform="translate(7.748092 7.641221)"><g fill="#fff" stroke="#fff" stroke-width=".5" transform="translate(35.419847)"><path d="m7.08396947 3.64885496c0 .88549619-.22137405 1.66030535-.77480916 2.21374046-.66412214.66412214-1.4389313.99618321-2.43511451.99618321-.9961832 0-1.77099236-.33206107-2.4351145-.99618321s-.99618321-1.4389313-.99618321-2.4351145c0-.99618321.33206107-1.77099237.99618321-2.43511451s1.4389313-.9961832 2.4351145-.9961832c.44274809 0 .88549618.11068702 1.32824428.33206106.44274809.22137405.77480916.4427481.9961832.77480917l-.55343511.55343511c-.44274809-.55343511-.99618321-.77480916-1.77099237-.77480916-.66412214 0-1.32824427.22137405-1.77099236.77480916-.55343512.44274809-.77480917 1.10687023-.77480917 1.88167939s.22137405 1.4389313.77480917 1.88167939c.55343511.44274809 1.10687022.77480916 1.77099236.77480916.77480916 0 1.32824428-.22137405 1.88167939-.77480916.33206107-.33206107.55343512-.77480916.55343512-1.32824428h-2.43511451v-.77480916h3.20992367z"/><path d="m12.1755725.88167939h-2.9885496v2.10305343h2.7671756v.77480916h-2.7671756v2.10305344h2.9885496v.88549618h-3.87404578v-6.64122137h3.87404578z"/><path d="m15.8282443 6.7480916h-.8854962v-5.86641221h-1.8816794v-.77480916h4.648855v.77480916h-1.8816794z"/><path d="m20.9198473 6.7480916v-6.64122137h.8854962v6.64122137z"/><path d="m25.5687023 6.7480916h-.8854962v-5.86641221h-1.8816794v-.77480916h4.538168v.77480916h-1.8816794v5.86641221z"/><path d="m36.0839695 5.86259542c-.6641222.66412214-1.4389313.99618321-2.4351145.99618321s-1.7709924-.33206107-2.4351145-.99618321c-.6641222-.66412214-.9961832-1.4389313-.9961832-2.4351145 0-.99618321.332061-1.77099237.9961832-2.43511451.6641221-.66412214 1.4389313-.9961832 2.4351145-.9961832s1.7709923.33206106 2.4351145.9961832c.6641221.66412214.9961832 1.4389313.9961832 2.43511451 0 .9961832-.3320611 1.77099236-.9961832 2.4351145zm-4.2061069-.55343511c.4427481.44274809 1.1068702.77480916 1.7709924.77480916.6641221 0 1.3282442-.22137405 1.7709923-.77480916.4427481-.4427481.7748092-1.10687023.7748092-1.88167939s-.2213741-1.4389313-.7748092-1.88167939c-.4427481-.44274809-1.1068702-.77480916-1.7709923-.77480916-.6641222 0-1.3282443.22137404-1.7709924.77480916-.4427481.44274809-.7748092 1.10687023-.7748092 1.88167939s.2213741 1.43893129.7748092 1.88167939z"/><path d="m38.2977099 6.7480916v-6.64122137h.9961832l3.2099237 5.20229008v-1.32824428-3.8740458h.8854962v6.64122137h-.8854962l-3.4312977-5.42366412v1.32824428 4.09541984z"/></g><path d="m65.4160305 16.4885496c-2.6564885 0-4.759542 1.9923664-4.759542 4.759542 0 2.6564886 2.1030535 4.759542 4.759542 4.759542 2.6564886 0 4.759542-1.9923664 4.759542-4.759542 0-2.8778626-2.1030534-4.759542-4.759542-4.759542zm0 7.5267176c-1.4389313 0-2.6564885-1.2175573-2.6564885-2.8778626 0-1.6603054 1.2175572-2.8778626 2.6564885-2.8778626s2.6564886 1.1068702 2.6564886 2.8778626c0 1.6603053-1.2175573 2.8778626-2.6564886 2.8778626zm-10.2938931-7.5267176c-2.6564885 0-4.759542 1.9923664-4.759542 4.759542 0 2.6564886 2.1030535 4.759542 4.759542 4.759542 2.6564886 0 4.759542-1.9923664 4.759542-4.759542 0-2.8778626-2.1030534-4.759542-4.759542-4.759542zm0 7.5267176c-1.4389313 0-2.6564885-1.2175573-2.6564885-2.8778626 0-1.6603054 1.2175572-2.8778626 2.6564885-2.8778626s2.6564886 1.1068702 2.6564886 2.8778626c0 1.6603053-1.2175573 2.8778626-2.6564886 2.8778626zm-12.2862595-6.0877863v1.9923664h4.7595419c-.110687 1.1068703-.5534351 1.9923664-1.1068702 2.5458016-.6641221.6641221-1.7709923 1.4389313-3.6526717 1.4389313-2.9885497 0-5.2022901-2.3244275-5.2022901-5.3129771 0-2.9885497 2.3244275-5.3129771 5.2022901-5.3129771 1.5496183 0 2.7671755.6641221 3.6526717 1.4389313l1.4389313-1.4389313c-1.2175572-1.1068703-2.7671756-1.9923665-4.980916-1.9923665-3.9847328 0-7.4160305 3.3206107-7.4160305 7.3053436 0 3.9847328 3.4312977 7.3053435 7.4160305 7.3053435 2.2137404 0 3.7633588-.6641222 5.091603-2.1030535 1.3282443-1.3282442 1.7709924-3.2099236 1.7709924-4.6488549 0-.4427481 0-.8854962-.110687-1.2175573zm50.2519084 1.5496183c-.4427481-1.1068702-1.5496184-2.9885496-3.9847329-2.9885496s-4.4274809 1.8816794-4.4274809 4.759542c0 2.6564886 1.9923664 4.759542 4.648855 4.759542 2.1030534 0 3.4312977-1.3282443 3.8740458-2.1030534l-1.5496183-1.1068703c-.5534352.7748092-1.2175573 1.3282443-2.3244275 1.3282443s-1.7709924-.4427481-2.3244275-1.4389313l6.3091603-2.6564885zm-6.4198474 1.5496184c0-1.7709924 1.4389313-2.7671756 2.4351145-2.7671756.7748092 0 1.5496184.4427481 1.7709924.9961832zm-5.20229 4.5381679h2.1030534v-13.8358779h-2.1030534zm-3.3206107-8.0801527c-.5534351-.5534351-1.4389313-1.1068702-2.5458016-1.1068702-2.3244274 0-4.5381679 2.1030534-4.5381679 4.759542 0 2.6564885 2.1030534 4.6488549 4.5381679 4.6488549 1.1068703 0 1.9923665-.5534351 2.4351145-1.1068702h.1106871v.6641222c0 1.7709923-.9961832 2.7671755-2.5458016 2.7671755-1.2175572 0-2.1030534-.8854962-2.3244274-1.6603053l-1.7709924.7748091c.5534351 1.2175573 1.8816794 2.7671756 4.2061069 2.7671756 2.4351145 0 4.4274809-1.4389313 4.4274809-4.870229v-8.4122137h-1.9923664zm-2.4351145 6.5305344c-1.4389313 0-2.6564886-1.2175573-2.6564886-2.8778626 0-1.6603054 1.2175573-2.8778626 2.6564886-2.8778626s2.5458015 1.2175572 2.5458015 2.8778626c0 1.6603053-1.1068702 2.8778626-2.5458015 2.8778626zm27.0076333-12.2862596h-4.9809158v13.8358779h2.1030535v-5.2022901h2.8778623c2.324428 0 4.538168-1.6603053 4.538168-4.3167939 0-2.6564885-2.21374-4.3167939-4.538168-4.3167939zm.110687 6.6412214h-2.9885493v-4.759542h2.9885493c1.549619 0 2.435115 1.3282443 2.435115 2.3244275-.110687 1.2175573-.996183 2.4351145-2.435115 2.4351145zm12.729008-1.9923664c-1.549618 0-3.099237.6641221-3.652672 2.1030534l1.88168.7748092c.442748-.7748092 1.10687-.9961832 1.881679-.9961832 1.10687 0 2.103053.6641221 2.21374 1.7709924v.110687c-.332061-.2213741-1.217557-.5534351-2.103053-.5534351-1.992366 0-3.984733 1.1068702-3.984733 3.0992366 0 1.8816794 1.660305 3.0992366 3.431298 3.0992366 1.438931 0 2.103053-.6641221 2.656488-1.3282442h.110687v1.1068702h1.992367v-5.3129771c-.221374-2.4351145-2.103054-3.8740458-4.427481-3.8740458zm-.221374 7.6374046c-.664122 0-1.660305-.3320611-1.660305-1.2175573 0-1.1068702 1.217557-1.4389313 2.21374-1.4389313.885496 0 1.328244.2213741 1.881679.4427481-.221374 1.3282443-1.328244 2.2137405-2.435114 2.2137405zm11.622137-7.3053435-2.324427 5.9770992h-.110687l-2.435115-5.9770992h-2.21374l3.652672 8.4122137-2.103054 4.648855h2.103054l5.645038-13.0610687zm-18.59542 8.8549618h2.103054v-13.8358779h-2.103054z" fill="#fff"/><g transform="translate(0 .10687)"><path d="m1.54961832.55343512c-.33206107.33206106-.55343511.88549618-.55343511 1.54961832v24.46183206c0 .6641221.22137404 1.2175572.55343511 1.5496183l.11068702.110687 13.72519086-13.7251908v-.110687-.110687z" fill="url(#a)"/><path d="m19.9236641 19.148855-4.5381679-4.538168v-.221374-.110687l4.5381679-4.53816798.110687.11068702 5.4236642 3.09923666c1.5496183.8854962 1.5496183 2.3244275 0 3.2099236z" fill="url(#b)"/><path d="m20.0343511 19.0381679-4.6488549-4.6488549-13.83587788 13.8358778c.55343512.5534352 1.32824428.5534352 2.32442748.1106871z" fill="url(#c)"/><path d="m20.0343511 9.74045802-16.1603053-9.1870229c-.9961832-.55343512-1.77099236-.4427481-2.32442748.11068702l13.83587788 13.72519086z" fill="url(#d)"/><g fill="#000" transform="translate(0 18.816794)"><path d="m19.9236641.11068702-16.0496183 9.07633588c-.88549618.55343512-1.66030534.44274809-2.21374046 0l-.11068702.11068702.11068702.11068703c.55343512.44274809 1.32824428.55343511 2.21374046 0z" opacity=".2"/><path d="m1.54961832 9.1870229c-.33206107-.33206107-.44274809-.88549618-.44274809-1.54961832v.11068702c0 .66412214.22137404 1.21755725.55343511 1.54961832v-.11068702z" opacity=".12"/></g><path d="m25.4580153 15.8282443-5.5343512 3.0992366.110687.110687 5.4236642-3.0992366c.7748091-.4427481 1.1068702-.9961832 1.1068702-1.5496183 0 .5534351-.4427481.9961832-1.1068702 1.4389313z" fill="#000" opacity=".12"/><path d="m3.8740458.66412214 21.5839695 12.28625956c.6641221.4427481 1.1068702.8854962 1.1068702 1.4389313 0-.5534351-.3320611-1.1068703-1.1068702-1.5496183l-21.5839695-12.28625958c-1.54961832-.88549619-2.76717557-.11068703-2.76717557 1.66030534v.11068702c0-1.77099236 1.21755725-2.54580153 2.76717557-1.66030534z" fill="#fff" opacity=".25"/></g></g></g></svg>