<?xml version="1.0" encoding="UTF-8" standalone="no"?>
<svg width="58px" height="43px" viewBox="0 0 58 43" version="1.1" xmlns="http://www.w3.org/2000/svg" xmlns:xlink="http://www.w3.org/1999/xlink">
    <!-- Generator: sketchtool 42 (36781) - http://www.bohemiancoding.com/sketch -->
    <title>5A836417-7390-4234-B439-33841FE2FBCF</title>
    <desc>Created with sketchtool.</desc>
    <defs></defs>
    <g id="Symbols" stroke="none" stroke-width="1" fill="none" fill-rule="evenodd" opacity="0.5">
        <g id="In-the-Press" transform="translate(-1164.000000, -49.000000)" fill="#00293f">
            <g id="logos">
                <g transform="translate(377.000000, 49.000000)">
                    <g id="today" transform="translate(787.000000, 0.000000)">
                        <polygon id="Fill-92" points="0.69882149 31.0643412 0.69882149 33.6092824 3.78097054 33.6092824 3.78097054 41.9721059 6.73677643 41.9721059 6.73677643 33.6092824 9.80176776 33.6092824 9.80176776 31.0643412"></polygon>
                        <path d="M20.7001906,32.4640588 C20.1745407,31.9700588 19.5412652,31.5800588 18.8175217,31.3032353 C18.095338,31.0264118 17.3029636,30.8872353 16.4637955,30.8872353 C15.6152686,30.8872353 14.8197747,31.0264118 14.1022704,31.3032353 C13.384766,31.5785294 12.7514905,31.9700588 12.2211612,32.4640588 C11.6892721,32.9580588 11.2681282,33.5575882 10.970208,34.2473529 C10.6722877,34.9355882 10.5209879,35.7033529 10.5209879,36.5261765 C10.5209879,37.3505294 10.6722877,38.1167647 10.970208,38.805 C11.2681282,39.4947647 11.6892721,40.0942941 12.2211612,40.5882941 C12.7499307,41.0822941 13.3832062,41.4722941 14.1022704,41.7491176 C14.8197747,42.0259412 15.6152686,42.1651176 16.4637955,42.1651176 C17.3029636,42.1651176 18.095338,42.0259412 18.8175217,41.7491176 C19.542825,41.4722941 20.1745407,41.0822941 20.7001906,40.5882941 C21.2258406,40.0942941 21.6438648,39.4947647 21.9417851,38.805 C22.2397054,38.1167647 22.3910052,37.3505294 22.3910052,36.5261765 C22.3910052,35.7033529 22.2397054,34.9355882 21.9417851,34.2473529 C21.6438648,33.5575882 21.2258406,32.9580588 20.7001906,32.4640588 M17.6663951,39.351 C17.3092028,39.5085294 16.9036568,39.5880588 16.4637955,39.5880588 C16.0130156,39.5880588 15.6027903,39.5085294 15.2455979,39.351 C14.885286,39.1934706 14.5764471,38.9747647 14.3253206,38.7025294 C14.0741941,38.4287647 13.8745407,38.103 13.7357192,37.7344118 C13.5968977,37.3658235 13.5251473,36.959 13.5251473,36.5261765 C13.5251473,36.0933529 13.5968977,35.6865294 13.7357192,35.3179412 C13.8745407,34.9493529 14.0741941,34.6235882 14.3253206,34.3498235 C14.5764471,34.0775882 14.8868458,33.8588824 15.2455979,33.7013529 C15.6027903,33.5438235 16.0130156,33.4642941 16.4637955,33.4642941 C16.9036568,33.4642941 17.3092028,33.5438235 17.6663951,33.7013529 C18.0251473,33.8588824 18.3339861,34.0775882 18.5866724,34.3498235 C18.837799,34.6235882 19.0358925,34.9493529 19.1762738,35.3179412 C19.3150953,35.6880588 19.3868458,36.0933529 19.3868458,36.5261765 C19.3868458,36.959 19.3150953,37.3658235 19.1762738,37.7344118 C19.0358925,38.103 18.837799,38.4287647 18.5866724,38.7025294 C18.3355459,38.9747647 18.0267071,39.1934706 17.6663951,39.351" id="Fill-94"></path>
                        <path d="M33.0854073,32.5191176 C32.555078,32.0526471 31.9171231,31.6901765 31.1887002,31.4393529 C30.4618371,31.1900588 29.652305,31.0646471 28.7835009,31.0646471 L24.1166031,31.0646471 L24.1166031,41.9724118 L28.8006586,41.9724118 C29.6585442,41.9724118 30.4633969,41.8454706 31.1887002,41.5961765 C31.9171231,41.3468824 32.555078,40.9813529 33.0854073,40.5087647 C33.6157366,40.0361765 34.0368804,39.4580588 34.3348007,38.7897059 C34.632721,38.1228824 34.7840208,37.3551176 34.7840208,36.5093529 C34.7840208,35.6651176 34.632721,34.8973529 34.3348007,34.2305294 C34.0368804,33.5621765 33.6157366,32.9871176 33.0854073,32.5191176 M31.7783016,36.5093529 C31.7783016,36.8993529 31.7112305,37.2771176 31.5770884,37.6288824 C31.4429463,37.9821765 31.2464125,38.2926471 30.995286,38.5557059 C30.7441594,38.8187647 30.4290815,39.0313529 30.0609705,39.1888824 C29.6912998,39.3464118 29.2639168,39.4259412 28.7912998,39.4259412 L27.072409,39.4259412 L27.072409,33.6095882 L28.8068977,33.6095882 C29.3013518,33.6095882 29.7412132,33.6845294 30.1108839,33.8313529 C30.4789948,33.9781765 30.7909532,34.1861765 31.0374003,34.4477059 C31.2822877,34.7107647 31.4694627,35.0197059 31.5926863,35.3653529 C31.7159099,35.7125294 31.7783016,36.0979412 31.7783016,36.5093529" id="Fill-96"></path>
                        <path d="M42.7740555,31.0643412 L39.1303813,31.0643412 L34.9797747,41.8910471 L34.9485789,41.9721059 L38.292773,41.9721059 L38.8371404,40.4197529 L43.0844541,40.4197529 L43.6288215,41.9721059 L46.9730156,41.9721059 L42.7896534,31.1025765 L42.7740555,31.0643412 Z M42.2686828,37.8732824 L39.6357539,37.8732824 L40.9522184,34.0589294 L42.2686828,37.8732824 Z" id="Fill-98"></path>
                        <polygon id="Fill-100" points="53.7219237 31.0643412 51.3993934 34.9842235 49.0456672 31.0643412 45.7030329 31.0643412 49.9222704 37.5781059 49.9222704 41.9721059 52.8780763 41.9721059 52.8780763 37.5781059 57.080156 31.0643412"></polygon>
                        <path d="M7.94889081,26.1500353 C8.66951473,15.5955647 17.6507972,7.22509412 28.5849393,7.22509412 C39.559636,7.22509412 48.567435,15.6598 49.2287868,26.2723882 C49.2553033,26.6868588 49.2693414,27.1043882 49.2693414,27.5265059 L56.5067764,27.5265059 C56.5067764,27.1487412 56.4989775,26.7740353 56.4833795,26.4008588 C55.8844194,11.7873294 43.6228943,0.119447059 28.5849393,0.119447059 C13.6483709,0.119447059 1.44923744,11.6298 0.697417678,26.1056824 C0.672461005,26.5752118 0.659982669,27.0493294 0.659982669,27.5265059 L7.90053726,27.5265059 C7.90053726,27.0630941 7.91613518,26.6042706 7.94889081,26.1500353" id="Fill-102"></path>
                        <path d="M17.2844021,26.2330824 C17.9395147,20.6828471 22.7577123,16.3607294 28.5835355,16.3607294 C34.4421144,16.3607294 39.2805893,20.7287294 39.8935875,26.3187294 C39.9388215,26.7163765 39.9606586,27.1170824 39.9606586,27.5254353 L47.1996534,27.5254353 C47.1996534,27.1354353 47.187175,26.7484941 47.1622184,26.3646118 C46.5523397,16.8149647 38.4679376,9.25508235 28.5835355,9.25508235 C18.7147314,9.25508235 10.6412478,16.7935529 10.0079723,26.3217882 C9.98145581,26.7194353 9.96897747,27.1216706 9.96897747,27.5254353 L17.2079723,27.5254353 C17.2079723,27.0880235 17.2344887,26.6567294 17.2844021,26.2330824" id="Fill-104"></path>
                        <path d="M28.5841594,18.3905647 C24.0467244,18.3905647 20.2657886,21.5778588 19.4437782,25.7959765 C19.3330329,26.3557412 19.2768804,26.9338588 19.2768804,27.5257412 L37.8914385,27.5257412 C37.8914385,27.0837412 37.8602426,26.6509176 37.797851,26.2257412 C37.1552166,21.7965647 33.2760139,18.3905647 28.5841594,18.3905647" id="Fill-106"></path>
                    </g>
                </g>
            </g>
        </g>
    </g>
</svg>