<?xml version="1.0" encoding="UTF-8" standalone="no"?>
<svg width="224px" height="29px" viewBox="0 0 224 29" version="1.1" xmlns="http://www.w3.org/2000/svg" xmlns:xlink="http://www.w3.org/1999/xlink">
    <!-- Generator: sketchtool 42 (36781) - http://www.bohemiancoding.com/sketch -->
    <title>D83F50CC-E981-4094-BA88-04755D127C18</title>
    <desc>Created with sketchtool.</desc>
    <defs></defs>
    <g id="Symbols" stroke="none" stroke-width="1" fill="none" fill-rule="evenodd" opacity="0.5">
        <g id="In-the-Press" transform="translate(-880.000000, -69.000000)" fill="#00293f">
            <g id="logos">
                <g transform="translate(377.000000, 49.000000)">
                    <g id="LAT" transform="translate(503.000000, 19.000000)">
                        <path d="M200.680641,21.3175059 C199.768163,22.0057412 198.178735,23.3516235 197.319289,24.2203294 L194.215303,21.4857412 L194.215303,21.3175059 C194.61773,21.2043294 194.703518,20.8326824 194.703518,20.3876235 L194.703518,12.9760941 C193.984454,12.4683294 192.519809,11.2172706 191.713397,10.4969176 L190.708891,11.3702118 L190.708891,20.3876235 L191.484107,21.0636235 C191.633847,21.1936235 191.816343,21.3740941 192.087747,21.3740941 C192.421542,21.3740941 192.649272,21.2578588 192.978388,20.9795059 L193.295026,21.3175059 C192.448059,21.9185647 190.880468,23.2048 189.904038,24.2203294 L186.800052,21.4582118 L186.800052,21.3175059 C187.11669,21.2043294 187.288267,21.0024471 187.288267,20.5283294 L187.288267,13.0036235 C186.541127,12.4408 184.981334,11.1239765 184.299705,10.4969176 L183.29364,11.3426824 L183.29364,20.3876235 L184.012704,21.0070353 C184.26227,21.2242118 184.438527,21.3740941 184.702132,21.3740941 C185.01721,21.3740941 185.218423,21.3175059 185.563137,20.9795059 L185.879775,21.3175059 C184.881508,22.0806824 183.479255,23.2965647 182.488787,24.2203294 L179.384801,21.5148 L179.384801,21.3450353 C179.731075,21.2609176 179.873016,20.9795059 179.873016,20.4717412 L179.873016,11.5109176 L179.069723,10.8915059 C178.86695,10.7355059 178.676655,10.6376235 178.494159,10.6376235 C178.243033,10.6376235 177.96539,10.7630353 177.631594,11.0597412 L177.316516,10.6651529 C178.235234,10.0533882 179.701438,8.75032941 180.735581,7.79138824 L183.466776,10.2996235 L186.397626,7.79138824 C187.767123,8.91091765 189.386187,10.2139765 190.334541,10.7783294 L193.812877,7.79138824 C195.105945,8.83444706 197.490867,10.6942118 198.698146,11.3992706 L198.698146,11.5384471 C198.353432,11.6516235 198.122582,11.9085647 198.122582,12.4132706 L198.122582,20.3585647 L198.755858,20.9504471 C198.972669,21.1553882 199.226915,21.3740941 199.501438,21.3740941 C199.847712,21.3740941 200.112877,21.1951529 200.39364,20.9504471 L200.680641,21.3175059 Z" id="Fill-60"></path>
                        <path d="M177.747331,3.93069412 L176.597764,4.94469412 C175.665009,5.76751765 174.917868,6.12845882 174.211282,6.12845882 C173.663795,6.12845882 173.139705,5.87763529 172.573501,5.39587059 C172.373847,5.22610588 172.185113,5.05787059 171.913709,5.05787059 C171.60175,5.05787059 171.341265,5.19551765 171.07922,5.45245882 L170.762582,5.11445882 L174.183206,2.21163529 L175.906776,3.70587059 C176.10799,3.87869412 176.379393,3.98728235 176.625841,3.98728235 C176.922201,3.98728235 177.2326,3.81904706 177.430693,3.59269412 L177.747331,3.93069412 Z" id="Fill-62"></path>
                        <path d="M178.436603,21.3175059 C177.56156,22.0149176 175.887903,23.4311529 175.045615,24.2478588 L171.913553,21.5148 L171.913553,21.3450353 C172.245789,21.2563294 172.401768,20.9504471 172.401768,20.5558588 L172.401768,11.4833882 L171.682704,10.9190353 C171.475251,10.7569176 171.352028,10.6376235 171.079064,10.6376235 C170.768666,10.6376235 170.450468,10.7737412 170.188423,11.0322118 L169.873345,10.6651529 C170.729671,10.0610353 172.294142,8.77785882 173.292409,7.76232941 L176.396395,10.3837412 L176.396395,10.5244471 C176.131231,10.6238588 175.822392,10.8349176 175.822392,11.3426824 L175.822392,20.3876235 L176.625685,21.0926824 C176.825338,21.2655059 177.068666,21.3740941 177.315113,21.3740941 C177.613033,21.3740941 177.8626,21.2333882 178.119965,20.9795059 L178.436603,21.3175059 Z" id="Fill-64"></path>
                        <path d="M118.314731,21.3175059 C117.472444,21.9384471 115.992201,23.2002118 114.923744,24.2478588 L111.819757,21.4857412 L111.819757,21.3175059 C112.092721,21.2272706 112.279896,20.9183294 112.279896,20.4442118 L112.279896,6.01574118 L111.445407,5.39632941 C111.264471,5.26021176 111.086655,5.14244706 110.929116,5.14244706 C110.565685,5.14244706 110.308319,5.38409412 110.066551,5.62115294 L109.721837,5.25562353 C110.755979,4.49397647 112.25026,3.22609412 113.170537,2.29621176 L116.274523,4.91762353 L116.274523,5.02927059 C115.971924,5.11797647 115.69896,5.54162353 115.69896,6.01574118 L115.69896,20.3876235 L116.533449,21.1202118 C116.734662,21.2976235 116.985789,21.3740941 117.222877,21.3740941 C117.477123,21.3740941 117.787522,21.1875059 117.998094,20.9795059 L118.314731,21.3175059 Z" id="Fill-66"></path>
                        <path d="M84.6609705,21.3175059 C83.7406932,21.9751529 82.0639168,23.3944471 81.2699827,24.2203294 L78.1659965,21.5148 L78.1659965,21.3450353 C78.4607972,21.2486824 78.6542114,20.9840941 78.6542114,20.3310353 L78.6542114,13.0036235 C77.885234,12.4270353 76.4237088,11.2019765 75.6656499,10.4969176 L74.6595841,11.3426824 L74.6595841,20.3876235 L75.5798614,21.1768 C75.9401733,21.4857412 76.5063778,21.4215059 76.9587175,21.0070353 L77.247279,21.3175059 C76.2958059,22.0057412 74.7609705,23.3393882 73.8562912,24.2203294 L70.7507452,21.5148 L70.7507452,21.3450353 C71.0689428,21.2180941 71.2405199,20.9443294 71.2405199,20.4992706 L71.2405199,11.4833882 L70.4060312,10.8915059 C70.2172964,10.7569176 70.092513,10.6376235 69.9178163,10.6376235 C69.5247487,10.6376235 69.2627036,10.8395059 69.027175,11.0322118 L68.682461,10.6651529 C69.5029116,10.0962118 70.8833276,8.94456471 72.1015251,7.79138824 L74.832721,10.2996235 L77.7635702,7.79138824 C78.7914731,8.66162353 81.3635702,10.5917412 82.6488388,11.4268 L82.6488388,11.5675059 C82.1964991,11.6852706 82.0748354,12.0171529 82.0748354,12.2159765 L82.0748354,20.3876235 L83.0512652,21.2609176 C83.2197227,21.4108 83.7703293,21.4842118 84.3443328,20.9504471 L84.6609705,21.3175059 Z" id="Fill-68"></path>
                        <path d="M220.022218,21.6275176 L220.022218,17.4277529 L218.039723,16.5269294 L213.871958,20.8658706 L213.929671,20.8949294 C214.595702,20.5385765 215.58617,20.3596353 216.947868,20.3596353 C218.005407,20.3596353 219.298475,20.9438706 219.964506,21.6550471 L220.022218,21.6275176 Z M223.815633,20.1623412 C221.694315,21.1595176 218.989636,22.8586941 217.436083,24.2198706 C216.540763,23.5071647 215.366239,22.7822235 213.987383,22.7822235 C212.692756,22.7822235 212.291889,23.2257529 212.291889,23.6555176 C212.291889,23.9231647 212.692756,23.8895176 212.692756,24.2764588 C212.692756,24.4538706 212.505581,24.6710471 212.262253,24.6710471 C211.959653,24.6710471 211.658614,24.3590471 211.658614,23.8252824 C211.658614,22.9948118 212.162426,21.8905765 213.728458,20.1898706 L216.401941,17.2870471 L212.981317,15.5679882 L212.981317,15.3997529 C213.255841,15.3232824 213.355667,15.0984588 213.355667,14.7803412 L213.355667,12.2721059 C213.355667,12.0090471 213.193449,11.7429294 212.981317,11.6236353 L212.981317,11.4263412 C215.188423,10.3557529 217.730884,8.96551765 219.189289,7.7634 C219.576118,8.18551765 220.653934,8.7774 221.745789,8.7774 C222.666066,8.7774 222.78149,8.50057647 222.78149,8.18551765 C222.78149,8.00810588 222.63643,7.96069412 222.63643,7.81998824 C222.63643,7.5814 222.772132,7.48198824 222.953068,7.48198824 C223.226031,7.48198824 223.441282,7.68081176 223.441282,8.18551765 C223.441282,9.52069412 222.149775,11.1724588 220.022218,11.1724588 C218.51078,11.1724588 217.582704,10.7029294 216.947868,9.96116471 L216.804367,10.0452824 L216.804367,13.7372824 L218.900728,14.7237529 L219.792929,13.8504588 L223.815633,15.8509294 L223.815633,16.0191647 C223.603501,16.1078706 223.470919,16.3112824 223.470919,16.5544588 L223.470919,19.4006941 C223.470919,19.7769294 223.634697,19.8946941 223.815633,19.9925765 L223.815633,20.1623412 Z" id="Fill-70"></path>
                        <path d="M208.784853,14.3849882 C207.864575,13.2608706 206.273588,11.1961647 205.393865,9.87628235 L205.336153,9.90381176 L205.336153,16.5552235 L208.784853,14.3849882 Z M212.03234,13.1171059 L205.336153,17.2602824 L205.336153,19.8526353 C206.175321,20.1355765 207.969081,21.0516941 208.842565,21.5426353 L210.538059,19.9642824 C210.623847,19.4855765 210.800104,19.0068706 211.314835,19.0068706 C211.556603,19.0068706 211.687626,19.2087529 211.687626,19.4014588 C211.687626,19.6385176 211.547244,19.8220471 211.4287,19.9367529 L207.061282,24.1915765 C205.790052,23.3962824 202.937192,21.9464 201.45695,21.3178118 L201.45695,21.1480471 C201.743951,21.0348706 201.887452,20.7412235 201.887452,20.4154588 L201.887452,12.2988706 C201.887452,11.9455765 201.703397,11.6198118 201.427314,11.5678118 L201.427314,11.3980471 C203.370815,10.4941647 205.972548,9.03051765 208.009636,7.79169412 C209.190399,9.51075294 210.915529,11.8064 212.03234,13.1171059 L212.03234,13.1171059 Z" id="Fill-72"></path>
                        <path d="M162.975165,6.15721176 L162.401161,6.04403529 C158.902548,6.6818 154.870485,9.71462353 154.870485,14.7234471 C154.870485,18.0193294 156.656447,20.2905059 159.18175,21.4299176 C159.930451,20.9145059 160.76182,19.9769765 160.76182,18.3298 C160.76182,15.4009765 158.837036,13.8073294 158.837036,11.1446235 C158.837036,9.14874118 160.165979,7.37156471 162.975165,6.15721176 M166.451941,21.0078 L166.451941,6.57932941 C166.283484,6.59156471 166.107227,6.60838824 165.93565,6.60838824 C165.241542,6.60838824 164.592669,6.46921176 163.780017,6.32697647 C162.738076,6.81791765 161.795962,7.88850588 161.795962,9.53874118 C161.795962,12.6449765 163.578804,13.3760353 163.578804,16.5266235 C163.578804,19.0042706 161.455927,20.8242706 159.727678,21.6547412 C160.663553,21.9988588 161.703934,22.1349765 162.773951,22.1349765 C163.98591,22.1349765 165.643969,21.5553294 166.451941,21.0078 M170.390416,2.94391765 C170.390416,5.16921176 168.869619,6.2398 166.999428,6.52274118 L166.999428,20.6407412 C168.049168,19.8974471 168.888336,18.8956824 169.326638,17.8510941 C169.367192,17.7532118 169.38435,17.6629765 169.38435,17.5972118 C169.38435,17.4488588 169.239289,17.3555647 169.240849,17.1750941 C169.240849,16.9808588 169.284523,16.7529765 169.555927,16.7529765 C169.797695,16.7529765 169.959913,16.9380353 169.959913,17.1750941 C169.959913,20.5520353 167.453328,24.8680353 160.417106,24.8680353 C155.385217,24.8680353 151.248648,21.1454471 151.248648,15.9622706 C151.248648,9.04168235 157.115026,6.59921176 161.078458,5.73356471 C159.751075,5.51638824 157.894922,5.19827059 156.163553,5.19827059 C152.855234,5.19827059 151.810173,6.73532941 151.53721,7.84721176 L151.192496,7.67897647 C151.251768,6.11285882 152.66026,1.81674118 156.968406,1.81674118 C161.189203,1.81674118 163.886083,3.5358 167.171005,3.5358 C169.342236,3.5358 169.732184,2.57838824 169.930277,1.59191765 L170.304627,1.73262353 C170.332704,1.86262353 170.390416,2.67474118 170.390416,2.94391765" id="Fill-74"></path>
                        <path d="M137.110225,21.6275176 L137.110225,17.4277529 L135.12773,16.5269294 L130.959965,20.8658706 L131.017678,20.8949294 C131.683709,20.5385765 132.674177,20.3596353 134.034315,20.3596353 C135.093414,20.3596353 136.386482,20.9438706 137.052513,21.6550471 L137.110225,21.6275176 Z M140.90364,20.1623412 C138.782322,21.1595176 136.077643,22.8586941 134.52253,24.2198706 C133.628769,23.5071647 132.454246,22.7822235 131.07539,22.7822235 C129.780763,22.7822235 129.379896,23.2257529 129.379896,23.6555176 C129.379896,23.9231647 129.780763,23.8895176 129.780763,24.2764588 C129.780763,24.4538706 129.592028,24.6710471 129.35026,24.6710471 C129.04766,24.6710471 128.74662,24.3590471 128.74662,23.8252824 C128.74662,22.9948118 129.250433,21.8905765 130.816464,20.1898706 L133.488388,17.2870471 L130.069324,15.5679882 L130.069324,15.3722235 C130.343847,15.2942235 130.442114,15.0984588 130.442114,14.7803412 L130.442114,12.2721059 C130.442114,11.9325765 130.32825,11.7368118 130.069324,11.6236353 L130.069324,11.4263412 C132.27643,10.3557529 134.818891,8.96551765 136.275737,7.7634 C136.664125,8.18551765 137.741941,8.7774 138.833795,8.7774 C139.754073,8.7774 139.869497,8.50057647 139.869497,8.18551765 C139.869497,8.00810588 139.724437,7.93469412 139.724437,7.81998824 C139.724437,7.5814 139.860139,7.48198824 140.041075,7.48198824 C140.314038,7.48198824 140.530849,7.68081176 140.530849,8.18551765 C140.530849,9.52069412 139.208146,11.1724588 137.110225,11.1724588 C135.598787,11.1724588 134.670711,10.7029294 134.034315,9.96116471 L133.890815,10.0452824 L133.890815,13.7372824 L135.988735,14.7237529 L136.880936,13.8504588 L140.90364,15.8509294 L140.90364,16.0466941 C140.691508,16.1369294 140.558925,16.3403412 140.558925,16.5835176 L140.558925,19.3731647 C140.558925,19.7494 140.702426,19.9084588 140.90364,19.9650471 L140.90364,20.1623412 Z" id="Fill-76"></path>
                        <path d="M126.074229,14.3849882 C125.152392,13.2608706 123.562964,11.1961647 122.683241,9.87628235 L122.625529,9.90381176 L122.625529,16.5552235 L126.074229,14.3849882 Z M129.321716,13.1171059 L122.625529,17.2602824 L122.625529,19.8526353 C123.464697,20.1355765 125.258458,21.0516941 126.131941,21.5426353 L127.827435,19.9642824 C127.9413,19.4855765 128.08792,19.0068706 128.602652,19.0068706 C128.844419,19.0068706 128.977002,19.2087529 128.977002,19.4014588 C128.977002,19.6385176 128.864697,19.8220471 128.746153,19.9367529 L124.350659,24.1915765 C123.079428,23.3962824 120.226568,21.9464 118.744766,21.3178118 L118.744766,21.1480471 C118.988094,21.0593412 119.176828,20.7412235 119.176828,20.4154588 L119.176828,12.2988706 C119.176828,11.9455765 118.992773,11.6198118 118.71669,11.5678118 L118.71669,11.3980471 C120.658631,10.4941647 123.260364,9.03051765 125.297452,7.79169412 C126.479775,9.51075294 128.204905,11.8064 129.321716,13.1171059 L129.321716,13.1171059 Z" id="Fill-78"></path>
                        <path d="M107.048821,14.3849882 C106.128544,13.2608706 104.537556,11.1961647 103.657834,9.87628235 L103.600121,9.90381176 L103.600121,16.5552235 L107.048821,14.3849882 Z M110.324385,13.1171059 L103.600121,17.2602824 L103.600121,19.8526353 C104.439289,20.1355765 106.23305,21.0516941 107.106534,21.5426353 L108.802028,19.9642824 C108.917452,19.4580471 109.060953,19.0068706 109.60688,19.0068706 C109.848648,19.0068706 109.951594,19.2087529 109.951594,19.4014588 C109.951594,19.6385176 109.839289,19.8220471 109.722305,19.9367529 L105.325251,24.2206353 C104.054021,23.4253412 101.201161,21.9464 99.7209185,21.3178118 L99.7209185,21.1480471 C99.9626863,21.0593412 100.151421,20.7412235 100.151421,20.4154588 L100.151421,12.2988706 C100.151421,11.9455765 99.9673657,11.6198118 99.6912825,11.5678118 L99.6912825,11.3980471 C101.634783,10.4941647 104.264593,9.03051765 106.301681,7.79169412 C107.484003,9.51075294 109.207574,11.8064 110.324385,13.1171059 L110.324385,13.1171059 Z" id="Fill-80"></path>
                        <path d="M93.3407452,21.5993765 L93.3407452,12.9765529 C92.4391854,12.3923176 90.3381456,10.9057294 89.2587695,10.0737294 L89.1152686,10.1869059 L89.1152686,19.7105529 C90.2663951,20.2596118 92.284766,21.4571412 92.9102426,21.9083176 L93.3407452,21.5993765 Z M98.4849393,23.0370235 C98.3944714,26.5653765 96.7301733,29.1516118 93.3688215,29.1516118 C90.7390121,29.1516118 89.0918718,27.7980824 86.7022704,27.7980824 C85.3109359,27.7980824 84.537279,28.2538471 84.1442114,28.7279647 L83.7698614,28.4190235 C84.2845927,25.9857294 85.9520104,24.4456118 88.3119757,24.4456118 C90.912149,24.4456118 92.5421317,26.0790235 95.2951646,26.0790235 C96.5648354,26.0790235 97.3166551,25.4779647 97.6800867,24.5587882 L97.6520104,24.5022 C97.2464645,24.6413765 96.8237608,24.6994941 96.4150953,24.6994941 C94.9972444,24.6994941 93.7135355,23.7527882 93.4561698,22.1622 C92.7792201,22.6256118 91.4190815,23.6487882 90.7530503,24.2207882 C89.0918718,23.1700824 86.5384922,21.8303176 85.2360659,21.2613765 L85.2360659,21.0916118 C85.5074697,21.0029059 85.6962045,20.7413765 85.6962045,20.4156118 L85.6962045,12.3556118 C85.6962045,11.8830235 85.5105893,11.6276118 85.1783536,11.5679647 L85.1783536,11.4272588 C87.5024437,10.5509059 90.0761005,9.02914118 91.7591161,7.76278824 C93.2097227,8.88843529 95.6118024,10.5264353 97.1622357,11.3982 L97.1622357,11.5389059 C96.9516638,11.6276118 96.7598094,11.8539647 96.7598094,12.3280824 L96.7598094,21.1772588 C96.7598094,22.2799647 97.0390121,22.8672588 97.8532236,22.8672588 C97.9811265,22.8672588 98.1261872,22.8764353 98.2837262,22.8397294 L98.4849393,23.0370235 Z" id="Fill-82"></path>
                        <path d="M61.5836915,15.0050118 L58.6528423,6.55195294 L58.59513,6.55195294 L55.6642808,15.0050118 L61.5836915,15.0050118 Z M70.0050087,21.5707765 C69.0379376,23.2011294 68.0349913,24.4170118 66.5843847,24.4170118 C65.4363778,24.4170118 64.625286,23.7731294 64.1994627,22.5572471 L62.3027556,17.1477176 L54.9452166,17.1477176 L53.8814385,20.1621882 C55.0606412,20.2508941 56.1384575,20.9513647 56.4394974,20.9513647 C56.7717331,20.9513647 57.0540555,20.6974824 57.417487,20.1056 L57.8760659,20.3870118 L55.4334315,24.2197176 C54.7689601,23.6568941 53.7207799,23.0650118 52.3294454,23.0650118 C50.4233795,23.0650118 49.2410572,23.5666588 48.3644541,24.2197176 L48.0478163,24.1065412 C48.4705199,22.0923059 50.1691334,20.3411294 53.1342981,20.1346588 L58.2504159,5.42477647 L58.077279,4.91701176 C57.724766,3.87701176 57.0228596,3.31112941 56.2679203,3.31112941 C55.4817851,3.31112941 55.0731196,3.66442353 54.8017158,3.93054118 L54.5724263,3.73324706 C54.7829983,2.57701176 55.8701733,1.31065882 57.5313518,1.31065882 C58.9211265,1.31065882 59.8632409,1.97595294 60.3764125,2.77583529 L60.4341248,2.77583529 C60.6758925,2.15336471 61.1282322,1.65018824 61.6117678,1.59207059 L61.6991161,1.73277647 C61.5181802,1.87042353 61.2966898,2.4256 61.2966898,3.02971765 C61.2966898,3.33254118 61.3668804,3.63536471 61.4682669,3.93054118 L67.504662,21.4300706 C67.6466031,21.8445412 67.9460832,22.0494824 68.2798787,22.0494824 C68.764974,22.0494824 69.0644541,21.7680706 69.4575217,21.2037176 L70.0050087,21.5707765 Z" id="Fill-84"></path>
                        <path d="M37.6441594,21.6275176 L37.6441594,17.4277529 L35.6616638,16.5269294 L31.4938995,20.8658706 L31.5516118,20.8949294 C32.217643,20.5385765 33.2081109,20.3596353 34.5698094,20.3596353 C35.6289081,20.3596353 36.9219757,20.9438706 37.5864471,21.6550471 L37.6441594,21.6275176 Z M41.4375737,20.1623412 C39.3178163,21.1595176 36.6115771,22.8586941 35.0580243,24.2198706 C34.1627036,23.5071647 32.9881802,22.7822235 31.6093241,22.7822235 C30.3162565,22.7822235 29.9138302,23.2257529 29.9138302,23.6555176 C29.9138302,23.9231647 30.3162565,23.8895176 30.3162565,24.2764588 C30.3162565,24.4538706 30.1259619,24.6710471 29.8841941,24.6710471 C29.5815945,24.6710471 29.2805546,24.3590471 29.2805546,23.8252824 C29.2805546,22.9948118 29.7843674,21.8905765 31.3503986,20.1898706 L34.0238821,17.2870471 L30.6032582,15.5679882 L30.6032582,15.3722235 C30.8793414,15.2942235 30.9776083,15.0984588 30.9776083,14.7803412 L30.9776083,12.2721059 C30.9776083,12.0090471 30.8153899,11.7429294 30.6032582,11.6236353 L30.6032582,11.4263412 C32.810364,10.3557529 35.352825,8.96551765 36.8112305,7.7634 C37.1996187,8.18551765 38.2758752,8.7774 39.3677296,8.7774 C40.2880069,8.7774 40.4034315,8.50057647 40.4034315,8.18551765 C40.4034315,8.00810588 40.2599307,7.93469412 40.2599307,7.81998824 C40.2599307,7.5814 40.3940728,7.48198824 40.5750087,7.48198824 C40.8479723,7.48198824 41.0647834,7.68081176 41.0647834,8.18551765 C41.0647834,9.52069412 39.9432929,11.1724588 37.6441594,11.1724588 C36.132721,11.1724588 35.2046447,10.7029294 34.5698094,9.96116471 L34.4247487,10.0452824 L34.4247487,13.7372824 L36.522669,14.7237529 L37.41487,13.8504588 L41.4375737,15.8509294 L41.4375737,16.0757529 C41.2254419,16.1644588 41.0928596,16.3678706 41.0928596,16.6110471 L41.0928596,19.3731647 C41.0928596,19.7494 41.2566378,19.8656353 41.4375737,19.9650471 L41.4375737,20.1623412 Z" id="Fill-86"></path>
                        <path d="M24.7863258,21.8810941 L24.7863258,12.7795647 C23.5790468,12.0745059 21.740052,10.8341529 20.7636222,10.0740353 L20.5904853,10.1872118 L20.5904853,19.2321529 C21.8835529,19.9372118 23.5790468,21.1485059 24.6709012,21.9652118 L24.7863258,21.8810941 Z M28.7232409,20.5566235 C26.8265338,21.3182706 23.6944714,23.0648588 22.2001906,24.2195647 C20.5046967,23.1214471 18.2632756,21.4589765 16.7112825,20.5841529 L16.7112825,20.3868588 C17.0559965,20.2752118 17.1417851,19.9647412 17.1417851,19.5426235 L17.1417851,12.5822706 C17.1417851,11.9353294 17.0185615,11.6722706 16.6535702,11.5958 L16.6535702,11.4260353 C18.8949913,10.5527412 21.1644887,9.31391765 23.1766205,7.76309412 C24.5851127,8.86274118 27.1431716,10.4961529 28.6093761,11.3985059 L28.6093761,11.5682706 C28.3067764,11.6860353 28.235026,11.9445059 28.235026,12.2993294 L28.235026,19.6542706 C28.235026,20.0488588 28.4814731,20.2981529 28.7232409,20.3868588 L28.7232409,20.5566235 Z" id="Fill-88"></path>
                        <path d="M8.80875217,19.5420118 L8.80875217,5.11354118 C8.05069324,4.78318824 7.42989601,4.28154118 6.79662045,3.56424706 L3.98119584,5.79107059 C3.98119584,9.94342353 6.19298094,11.8215412 6.19298094,15.1740118 C6.19298094,17.5186 4.50528596,19.9580118 3.20441941,21.2044824 L3.31984402,21.2335412 C5.04029463,20.2700118 7.26767764,19.7515412 8.80875217,19.5420118 L8.80875217,19.5420118 Z M16.1928076,19.0342471 L13.4350953,24.2204824 C12.3759965,23.3288353 10.8084055,22.6971882 8.75103986,22.6971882 C5.66577123,22.6971882 1.82244367,23.4817765 0.733708839,24.1638941 L0.359358752,23.7693059 C1.56975737,22.7308353 2.83162912,20.0375412 2.83162912,16.8364824 C2.83162912,13.4258941 0.847573657,11.8169529 0.847573657,8.44001176 C0.847573657,4.96824706 2.42920277,3.04424706 5.36005199,1.59130588 L5.70476603,1.90177647 C4.655026,2.75824706 4.11221837,3.78601176 4.0092721,5.05848235 L9.06767764,0.971894118 C10.0051127,1.86201176 11.4993934,2.85918824 12.8595321,2.85918824 C13.8889948,2.85918824 14.4115251,2.65424706 14.4115251,2.21224706 C14.4115251,1.97365882 14.210312,1.90330588 14.210312,1.76107059 C14.210312,1.52401176 14.3850087,1.42307059 14.584662,1.42307059 C14.8560659,1.42307059 15.0432409,1.74118824 15.0432409,2.09907059 C15.0432409,3.96801176 13.0888215,5.53718824 11.0798094,5.53718824 C10.4122184,5.53718824 9.84913345,5.4806 9.35467938,5.33989412 L9.35467938,19.4854235 C9.66507799,19.4563647 9.92088388,19.4288353 10.129896,19.4288353 C12.0375217,19.4288353 13.7283362,20.2180118 14.1822357,20.2180118 C14.8467071,20.2180118 15.0869151,19.7530706 15.6188042,18.7528353 L16.1928076,19.0342471 Z" id="Fill-90"></path>
                    </g>
                </g>
            </g>
        </g>
    </g>
</svg>