<?xml version="1.0" encoding="UTF-8" standalone="no"?>
<svg width="167px" height="22px" viewBox="0 0 167 22" version="1.1" xmlns="http://www.w3.org/2000/svg" xmlns:xlink="http://www.w3.org/1999/xlink">
    <!-- Generator: sketchtool 42 (36781) - http://www.bohemiancoding.com/sketch -->
    <title>3A5EA05B-88AA-49BE-8250-845B38394727</title>
    <desc>Created with sketchtool.</desc>
    <defs></defs>
    <g id="Symbols" stroke="none" stroke-width="1" fill="none" fill-rule="evenodd" opacity="0.5">
        <g id="In-the-Press" transform="translate(-377.000000, -70.000000)" fill="#00293f">
            <g id="logos">
                <g transform="translate(377.000000, 49.000000)">
                    <g id="techcrunch" transform="translate(0.000000, 21.000000)">
                        <polygon id="Fill-1" points="0 0.985529412 0 5.82152941 5.71975737 5.82152941 5.71975737 21.0162353 11.3802426 21.0162353 11.3802426 5.82152941 17.1015598 5.82152941 17.1015598 0.985529412"></polygon>
                        <path d="M23.3725477,9.48385882 C22.1761872,9.48385882 21.5054766,10.2852706 21.3292201,11.7733882 L25.7075563,11.7733882 C25.4439515,10.2562118 24.9183016,9.48385882 23.3725477,9.48385882 M30.3183016,14.9790353 L21.3292201,14.9790353 C21.5054766,16.6384471 22.4959445,17.3817412 23.9262738,17.3817412 C25.2692548,17.3817412 26.3782669,17.0942118 27.8959445,16.3218588 L29.9080763,19.6131529 C28.0129289,20.7005647 26.0569497,21.3306824 23.6642288,21.3306824 C19.0534835,21.3306824 16.5141421,18.1250353 16.5141421,13.5169176 C16.5141421,8.33832941 19.4902253,5.67868235 23.5176083,5.67868235 C27.719688,5.67868235 30.3479376,8.39644706 30.3479376,13.9757412 C30.3479376,14.4055059 30.3479376,14.7205647 30.3183016,14.9790353" id="Fill-2"></path>
                        <path d="M40.0905546,21.3300706 C35.5967938,21.3300706 32.9123917,18.5266588 32.9123917,13.4612471 C32.9123917,8.85312941 35.3051127,5.67807059 40.207539,5.67807059 C43.0962738,5.67807059 44.7605719,6.99336471 46.1019931,9.1116 L42.4832756,11.8018353 C41.7548527,10.4850118 41.257279,9.85489412 40.1201906,9.85489412 C38.7772097,9.85489412 38.1064991,11.1717176 38.1064991,13.5468941 C38.1064991,15.9220706 38.834922,17.1517176 40.2652513,17.1517176 C41.257279,17.1517176 41.9576256,16.6087765 42.9215771,15.2063059 L46.2486135,17.7527765 C44.4688908,20.3283059 42.8045927,21.3300706 40.0905546,21.3300706" id="Fill-4"></path>
                        <path d="M58.0055459,21.0157765 L58.0055459,12.4877765 C58.0055459,10.5423647 57.3348354,10.0269529 56.2538995,10.0269529 C55.1448873,10.0269529 54.4741768,10.5423647 54.4741768,12.4311882 L54.4741768,21.0157765 L49.2207972,21.0157765 L49.2207972,2.21624706 L54.4741768,0.1546 L54.4741768,6.99412941 C55.4365685,6.27836471 56.5175043,5.67730588 58.3253033,5.67730588 C61.6819757,5.67730588 63.2885615,7.88118824 63.2885615,11.8301294 L63.2885615,21.0157765 L58.0055459,21.0157765 Z" id="Fill-6"></path>
                        <path d="M75.8618891,21.3300706 C69.7911785,21.3300706 66.5514905,16.9223059 66.5514905,11.0004235 C66.5514905,4.5616 70.4041768,0.670776471 75.8899653,0.670776471 C80.9109359,0.670776471 82.8949913,2.78748235 84.2956846,6.56512941 L79.1592894,8.5396 C78.4293068,6.67983529 77.7289601,5.50677647 75.8618891,5.50677647 C73.4988042,5.50677647 72.4771404,7.82383529 72.4771404,11.0004235 C72.4771404,14.0623059 73.4691681,16.4940706 75.9196014,16.4940706 C77.6993241,16.4940706 78.4589428,15.5504235 79.5679549,13.6616 L84.3533969,16.1499529 C82.9823397,18.7836 80.7050433,21.3300706 75.8618891,21.3300706" id="Fill-8"></path>
                        <path d="M97.2754939,11.6580706 C96.6047834,10.9423059 95.8467244,10.3993647 94.8250607,10.3993647 C93.539792,10.3993647 92.7520971,11.0004235 92.7520971,12.8311294 L92.7520971,21.0165412 L87.5002773,21.0165412 L87.5002773,5.9916 L92.7520971,5.9916 L92.7520971,7.07901176 C93.6567764,6.22101176 94.6784402,5.67807059 96.0214211,5.67807059 C97.1304333,5.67807059 97.890052,5.93501176 98.5014905,6.30665882 L97.2754939,11.6580706 Z" id="Fill-10"></path>
                        <path d="M109.763969,21.0157765 L109.763969,20.0124824 C108.829653,20.7282471 107.720641,21.3293059 105.940919,21.3293059 C102.585806,21.3293059 100.97922,19.1269529 100.97922,15.1764824 L100.97922,5.99236471 L106.262236,5.99236471 L106.262236,14.5203647 C106.262236,16.4642471 106.932946,16.9796588 108.012322,16.9796588 C109.093258,16.9796588 109.763969,16.4642471 109.763969,14.5754235 L109.763969,5.99236471 L115.046984,5.99236471 L115.046984,21.0157765 L109.763969,21.0157765 Z" id="Fill-12"></path>
                        <path d="M127.620312,21.0157765 L127.620312,12.4877765 C127.620312,10.5423647 126.949601,10.0269529 125.868666,10.0269529 C124.759653,10.0269529 124.088943,10.5423647 124.088943,12.4311882 L124.088943,21.0157765 L118.835563,21.0157765 L118.835563,5.99236471 L124.088943,5.99236471 L124.088943,6.99412941 C125.051334,6.27836471 126.13227,5.67730588 127.940069,5.67730588 C131.296742,5.67730588 132.903328,7.88118824 132.903328,11.8301294 L132.903328,21.0157765 L127.620312,21.0157765 Z" id="Fill-14"></path>
                        <path d="M143.140399,21.3300706 C138.646638,21.3300706 135.962236,18.5266588 135.962236,13.4612471 C135.962236,8.85312941 138.354957,5.67807059 143.257383,5.67807059 C146.146118,5.67807059 147.810416,6.99336471 149.151837,9.1116 L145.53312,11.8018353 C144.804697,10.4850118 144.307123,9.85489412 143.170035,9.85489412 C141.827054,9.85489412 141.156343,11.1717176 141.156343,13.5468941 C141.156343,15.9220706 141.884766,17.1517176 143.315095,17.1517176 C144.307123,17.1517176 145.00747,16.6087765 145.971421,15.2063059 L149.296898,17.7527765 C147.518735,20.3283059 145.854437,21.3300706 143.140399,21.3300706" id="Fill-16"></path>
                        <path d="M161.055234,21.0157765 L161.055234,12.4877765 C161.055234,10.5423647 160.384523,10.0269529 159.303588,10.0269529 C158.194575,10.0269529 157.523865,10.5423647 157.523865,12.4311882 L157.523865,21.0157765 L152.270485,21.0157765 L152.270485,2.21624706 L157.523865,0.1546 L157.523865,6.99412941 C158.486256,6.27836471 159.567192,5.67730588 161.374991,5.67730588 C164.731664,5.67730588 166.33825,7.88118824 166.33825,11.8301294 L166.33825,21.0157765 L161.055234,21.0157765 Z" id="Fill-18"></path>
                    </g>
                </g>
            </g>
        </g>
    </g>
</svg>