<?xml version="1.0" encoding="UTF-8" standalone="no"?>
<svg width="55px" height="29px" viewBox="0 0 55 29" version="1.1" xmlns="http://www.w3.org/2000/svg" xmlns:xlink="http://www.w3.org/1999/xlink">
    <!-- Generator: sketchtool 42 (36781) - http://www.bohemiancoding.com/sketch -->
    <title>C5CEB7B9-0D57-4FBE-8372-44A425DC31B4</title>
    <desc>Created with sketchtool.</desc>
    <defs></defs>
    <g id="Symbols" stroke="none" stroke-width="1" fill="none" fill-rule="evenodd" opacity="0.5">
        <g id="In-the-Press" transform="translate(-765.000000, -62.000000)" fill="#00293f">
            <g id="logos">
                <g transform="translate(377.000000, 49.000000)">
                    <g id="WSJ" transform="translate(388.000000, 13.000000)">
                        <path d="M1.78634315,2.36722353 L0.340415945,2.14545882 L0.224991334,2.14545882 L0.224991334,1.05345882 L8.02083189,1.05345882 L8.02083189,2.14545882 L7.8040208,2.14545882 C6.91025997,2.03687059 6.46571924,2.36722353 6.46571924,3.23592941 L6.46571924,3.78345882 L9.80523397,20.6054588 L11.8111265,9.57381176 L10.6989948,4.00369412 C10.4743847,2.5844 9.92065858,2.03687059 8.91615251,2.14545882 L8.8007279,2.14545882 L8.8007279,1.05345882 L16.375078,1.05345882 L16.375078,2.14545882 L16.2674523,2.14545882 C15.0430156,2.03687059 14.4846101,2.47581176 14.4846101,3.45922353 L17.8272444,20.4968706 L18.047175,20.4968706 L21.0575737,4.33098824 L21.0575737,3.6764 C21.0575737,2.47581176 20.4976083,2.03687059 19.2747314,2.14545882 L18.9409359,2.14545882 L18.9409359,1.05345882 L25.5061005,1.05345882 L25.5061005,2.14545882 L25.1769844,2.14545882 L23.6156326,2.36722353 L22.6142461,4.54816471 L17.3795841,28.9040471 L15.8229116,28.9040471 L12.5925823,12.9568706 L9.24682842,28.9040471 L7.57785095,28.9040471 L2.56467938,4.00369412 L1.78634315,2.36722353 Z" id="Fill-54"></path>
                        <path d="M37.0925477,0.726623529 L37.0925477,10.3359176 L36.0911612,10.3359176 L36.0911612,10.0086235 C36.0911612,4.54862353 34.5344887,1.81862353 31.4164645,1.81862353 C29.2998267,1.71156471 28.187695,2.80203529 28.2953206,5.20474118 C28.2953206,6.40838824 28.6306759,7.60897647 29.4105719,8.69944706 L32.7516464,11.6496824 L36.872617,15.6919176 C37.9863085,17.3268588 38.5431542,19.4022706 38.5431542,21.6963882 C38.5431542,26.2846235 36.3157712,28.5772118 31.9701906,28.5772118 C30.2996534,28.5772118 28.6306759,28.0296824 26.9601386,26.8290941 L26.2894281,28.4716824 L25.5079723,28.4716824 L25.5079723,18.7476824 L26.4017331,18.7476824 L26.4017331,19.0749765 C26.4017331,22.0236824 27.0677643,24.2092118 28.2953206,25.7370941 C29.2998267,26.8290941 30.4103986,27.3766235 31.6363951,27.3766235 C34.2006932,27.3766235 35.5358752,25.9573294 35.5358752,23.0055647 C35.5358752,20.2770941 33.8637782,17.6541529 30.5227036,15.1443882 C27.0677643,12.6315647 25.2880416,9.90156471 25.2880416,6.73415294 C25.1772964,4.7658 25.8480069,3.23791765 27.0677643,2.14591765 C28.0722704,0.945329412 29.4105719,0.400858824 31.0795494,0.400858824 C32.7516464,0.400858824 34.2006932,0.945329412 35.6466205,2.14591765 L36.4249567,0.726623529 L37.0925477,0.726623529 Z" id="Fill-56"></path>
                        <path d="M44.8932236,22.0238353 C44.8932236,23.6603059 44.1148873,24.5351294 42.4427903,24.6452471 L43.2195667,26.7206588 C43.7748527,27.3752471 44.5563085,27.7025412 45.4485095,27.7025412 L47.4528423,26.8277176 L48.0112478,23.7719529 L48.0112478,3.78407059 C47.897383,2.6936 47.4528423,2.1476 46.4530156,2.1476 L45.6715598,2.1476 L45.6715598,1.05407059 L54.2472964,1.05407059 L54.2472964,2.1476 L53.4689601,2.1476 C52.4675737,2.1476 51.9076083,2.6936 52.0230329,3.78407059 L52.0230329,23.0057176 C51.9076083,26.9393647 49.7909705,28.9031294 45.6715598,29.0163059 C44.222513,28.9031294 42.9949567,28.4703059 42.2166205,27.4838353 C40.9921837,26.2817176 40.4368977,24.8624235 40.4368977,23.0057176 L41.3290988,20.8217176 L42.7765858,20.0585412 C43.9994627,20.0585412 44.7793588,20.7131294 44.8932236,22.0238353" id="Fill-58"></path>
                    </g>
                </g>
            </g>
        </g>
    </g>
</svg>