<svg height="50" viewBox="0 0 225 50" width="225" xmlns="http://www.w3.org/2000/svg"><g fill="#fff" fill-rule="evenodd"><path d="m66.9903315 18.2483295c0-2.3867403 2.1629834-4.2513812 5.5566298-4.2513812 2.6850829 0 5.109116.8577348 7.5331492 2.8342542l1.7154696-2.2748619c-2.64779-2.1256906-5.3701657-3.2071823-9.1740331-3.2071823-4.9599448 0-8.5773481 2.9834254-8.5773481 7.160221 0 4.3259668 2.7596685 6.2651933 8.7638121 7.570442 5.4820442 1.1560773 6.7872929 2.5359116 6.7872929 4.9972375 0 2.6477901-2.3121547 4.4751382-5.8176796 4.4751382-3.6174033 0-6.2279005-1.230663-8.9502762-3.691989l-1.8273481 2.1629834c3.1325967 2.7969614 6.5262431 4.1767956 10.6657459 4.1767956 5.1837016 0 8.9129834-2.9088398 8.9129834-7.4212707 0-4.0276243-2.6850829-6.1533149-8.5027624-7.4212707-5.743094-1.230663-7.0856354-2.6104973-7.0856354-5.1091161zm46.9605365 15.4392266-1.939226-1.9019337c-2.498619 2.3867403-4.848067 3.7665746-8.428177 3.7665746-5.743094 0-10.1063537-4.7361879-10.1063537-10.8149172s4.3259668-10.7403315 10.1063537-10.7403315c3.542818 0 6.004144 1.4917127 8.20442 3.5801105l2.013812-2.1629834c-2.610497-2.461326-5.444751-4.1395028-10.180939-4.1395028-7.6823207 0-13.2016578 6.0787293-13.2016578 13.5372929 0 7.5331491 5.5566299 13.4627071 13.0897788 13.4627071 4.736188 0 7.719614-1.827348 10.441989-4.5870165zm30.290647 4.1395027h-3.617403l-7.570442-10.1436464h-7.458563v10.1436464h-2.946133v-26.1049723h11.225138c5.743094 0 9.435083 3.0953038 9.435083 7.7941988 0 4.3632597-2.983425 6.8991713-7.085635 7.6450277zm-3.915745-18.198895c0-3.2444751-2.461326-5.1837017-6.675415-5.1837017h-8.055248v10.5911603h8.017955c3.915746 0 6.712708-2.0138122 6.712708-5.4074586zm14.874506-7.9060773v26.1049723h2.946133v-26.1049723zm25.013585 0c5.146409 0 8.502762 2.5359116 8.502762 6.526243 0 3.4309393-2.088398 5.1837017-4.139503 6.0787293 3.095304.9323205 5.593923 2.7223757 5.593923 6.339779 0 4.512431-3.766574 7.160221-9.472376 7.160221h-11.598066v-26.1049723zm-.476157 11.6353591c3.542818 0 6.004144-1.6035912 6.004144-4.6988951 0-2.6104972-2.051105-4.288674-5.780387-4.288674h-7.94337v8.9875691zm1.044199 11.8218232c3.953039 0 6.414365-1.7527625 6.414365-4.6988951 0-2.8715469-2.386741-4.5124309-6.936465-4.5124309h-8.241712v9.211326zm40.8039-10.3674033c0-5.8176796-4.214089-10.3674034-10.814918-10.3674034h-6.116022v20.660221h6.116022c6.600829 0 10.814918-4.4751381 10.814918-10.2928176zm3.058011-.0745857c0 7.3839779-5.668509 13.089779-13.872929 13.089779h-9.062154v-26.1049723h9.062154c8.20442 0 13.872929 5.6312154 13.872929 13.0151933z"/><path d="m4.46602684 24.6095885c1.69441931 2.0117615 3.92040557 3.0174501 6.67517776 3.0174501 2.3058405 0 4.1206371-.6982561 5.4455816-2.0951525 1.32415-1.3965122 1.9872182-3.0685608 1.9872182-5.0165301 0-1.9986956-.6436013-3.5685229-1.9284201-4.7087133-1.2848187-1.1405746-2.655451-1.7108619-4.112294-1.7108619-.4505209 0-1.0472425.0768581-1.7889731.2309587-.7155098.1790794-1.19185415.2686191-1.43062227.2686191-1.0603529 0-1.58913886-.6402282-1.58913886-1.9218375 0-2.1527962 1.07306602-4.00392419 3.21840343-5.55492122.6277099-.45307867 1.2721057-.84543942 1.9292146-1.18438377 1.8867051-.85466239 4.1321583-1.32349697 6.6497516-1.32349697 4.8488599 0 9.2050868 1.26931199 12.9800862 3.77757702l-2.8384215 4.08132894 3.9362969 2.6001105 5.338137-7.62179864-1.6650203-1.34117435c-5.030419-4.05234483-11.0028002-6.10676261-17.7510783-6.10676261-10.40568127 0-17.67281327 6.38076184-17.67281327 15.5176562v.1248944c.01708324.1748523.0103294.3481674.0103294.5260939 0 3.5877375.91057656 6.4291825 2.60658501 8.440944z"/><path d="m25.9029634 24.3173748c-1.3241499 1.3965122-1.9872181 3.0689451-1.9872181 5.0165301 0 1.9986956.6436012 3.5685229 1.92842 4.7087132 1.2844215 1.1405746 2.655451 1.7104777 4.1126913 1.7104777.4501236 0 1.0468453-.0760896 1.7885758-.2305744.7155098-.1790795 1.1918542-.2686192 1.4310196-.2686192 1.0599556 0 1.5887415.6402282 1.5887415 1.9218375 0 .4619174-.0524415.9088474-.1513654 1.3427115-1.7643415 4.3248069-6.2862361 6.7965644-12.8283235 6.7965644-5.5556294 0-10.8824229-1.7665841-15.22196383-5.0119186l3.56456463-4.1598715-3.71342024-2.8910186-6.41468516 7.5850541 1.63164832 1.4614573c5.49007748 4.9181517 12.64755888 7.6270164 20.15385628 7.6270164.8366816 0 1.6483343-.0391976 2.4393282-.1076014 4.3220604-.1936825 8.6333941-1.8096246 11.6734167-4.5503855 3.1127258-2.8060903 4.66889-6.6831986 4.66889-11.6286349 0-3.5877374-.8474083-6.387679-2.5434167-8.3990563-1.6944193-2.0121458-3.9204056-3.0178344-6.6751778-3.0178344-2.3058405 0-4.1206371.6982561-5.4455816 2.0951526z"/></g></svg>